<svg xmlns="http://www.w3.org/2000/svg" style="display:none"><symbol id="icon-ruler" viewBox="0 0 256 256"><path d="M235.32,73.37,182.63,20.69a16,16,0,0,0-22.63,0L20.68,160a16,16,0,0,0,0,22.63l52.69,52.68a16,16,0,0,0,22.63,0L235.32,96A16,16,0,0,0,235.32,73.37ZM84.68,224,32,171.31l32-32,26.34,26.35a8,8,0,0,0,11.32-11.32L75.31,128,96,107.31l26.34,26.35a8,8,0,0,0,11.32-11.32L107.31,96,128,75.31l26.34,26.35a8,8,0,0,0,11.32-11.32L139.31,64l32-32L224,84.69Z"/></symbol><symbol id="icon-location" viewBox="0 0 256 256"><path d="M128,64a40,40,0,1,0,40,40A40,40,0,0,0,128,64Zm0,64a24,24,0,1,1,24-24A24,24,0,0,1,128,128Zm0-112a88.1,88.1,0,0,0-88,88c0,31.4,14.51,64.68,42,96.25a254.19,254.19,0,0,0,41.45,38.3,8,8,0,0,0,9.18,0A254.19,254.19,0,0,0,174,200.25c27.45-31.57,42-64.85,42-96.25A88.1,88.1,0,0,0,128,16Zm0,206c-16.53-13-72-60.75-72-118a72,72,0,0,1,144,0C200,161.23,144.53,209,128,222Z"/></symbol><symbol id="icon-shield" viewBox="0 0 256 256"><path d="M208,40H48A16,16,0,0,0,32,56v56c0,52.72,25.52,84.67,46.93,102.19,23.06,18.86,46,25.27,47,25.53a8,8,0,0,0,4.2,0c1-.26,23.91-6.67,47-25.53C198.48,196.67,224,164.72,224,112V56A16,16,0,0,0,208,40Zm0,72c0,37.07-13.66,67.16-40.6,89.42A129.3,129.3,0,0,1,128,223.62a128.25,128.25,0,0,1-38.92-21.81C61.82,179.51,48,149.3,48,112l0-56,160,0Z"/></symbol><symbol id="icon-faq" viewBox="0 0 256 256"><path d="M140,180a12,12,0,1,1-12-12A12,12,0,0,1,140,180ZM128,72c-22.06,0-40,16.15-40,36v4a8,8,0,0,0,16,0v-4c0-11,10.77-20,24-20s24,9,24,20-10.77,20-24,20a8,8,0,0,0-8,8v8a8,8,0,0,0,16,0v-.72c18.24-3.35,32-17.9,32-35.28C168,88.15,150.06,72,128,72Zm104,56A104,104,0,1,1,128,24,104.11,104.11,0,0,1,232,128Zm-16,0a88,88,0,1,0-88,88A88.1,88.1,0,0,0,216,128Z"/></symbol><symbol id="icon-related" viewBox="0 0 256 256"><path d="M165.66,90.34a8,8,0,0,1,0,11.32l-64,64a8,8,0,0,1-11.32-11.32l64-64A8,8,0,0,1,165.66,90.34ZM215.6,40.4a56,56,0,0,0-79.2,0L106.34,70.45a8,8,0,0,0,11.32,11.32l30.06-30a40,40,0,0,1,56.57,56.56l-30.07,30.06a8,8,0,0,0,11.31,11.32L215.6,119.6a56,56,0,0,0,0-79.2ZM138.34,174.22l-30.06,30.06a40,40,0,1,1-56.56-56.57l30.05-30.05a8,8,0,0,0-11.32-11.32L40.4,136.4a56,56,0,0,0,79.2,79.2l30.06-30.07a8,8,0,0,0-11.32-11.31Z"/></symbol><symbol id="icon-services" viewBox="0 0 256 256"><path d="M226.76,69a8,8,0,0,0-12.84-2.88l-40.3,37.19-17.23-3.7-3.7-17.23,37.19-40.3A8,8,0,0,0,187,29.24,72,72,0,0,0,88,96,72.34,72.34,0,0,0,94,124.94L33.79,177c-.15.12-.29.26-.43.39a32,32,0,0,0,45.26,45.26c.13-.13.27-.28.39-.42L131.06,162A72,72,0,0,0,232,96,71.56,71.56,0,0,0,226.76,69ZM160,152a56.14,56.14,0,0,1-27.07-7,8,8,0,0,0-9.92,1.77L67.11,211.51a16,16,0,0,1-22.62-22.62L109.18,133a8,8,0,0,0,1.77-9.93,56,56,0,0,1,58.36-82.31l-31.2,33.81a8,8,0,0,0-1.94,7.1L141.83,108a8,8,0,0,0,6.14,6.14l26.35,5.66a8,8,0,0,0,7.1-1.94l33.81-31.2A56.06,56.06,0,0,1,160,152Z"/></symbol><symbol id="icon-chevron-left" viewBox="0 0 256 256"><path d="M165.66,202.34a8,8,0,0,1-11.32,11.32l-80-80a8,8,0,0,1,0-11.32l80-80a8,8,0,0,1,11.32,11.32L91.31,128Z"/></symbol><symbol id="icon-chevron-right" viewBox="0 0 256 256"><path d="M181.66,133.66l-80,80a8,8,0,0,1-11.32-11.32L164.69,128,90.34,53.66a8,8,0,0,1,11.32-11.32l80,80A8,8,0,0,1,181.66,133.66Z"/></symbol><symbol id="icon-external" viewBox="0 0 256 256"><path d="M224,104a8,8,0,0,1-16,0V59.32l-66.33,66.34a8,8,0,0,1-11.32-11.32L196.68,48H152a8,8,0,0,1,0-16h64a8,8,0,0,1,8,8Zm-40,24a8,8,0,0,0-8,8v72H48V80h72a8,8,0,0,0,0-16H48A16,16,0,0,0,32,80V208a16,16,0,0,0,16,16H176a16,16,0,0,0,16-16V136A8,8,0,0,0,184,128Z"/></symbol><symbol id="icon-datasheet" viewBox="0 0 256 256"><path d="M213.66,82.34l-56-56A8,8,0,0,0,152,24H56A16,16,0,0,0,40,40V216a16,16,0,0,0,16,16H200a16,16,0,0,0,16-16V88A8,8,0,0,0,213.66,82.34ZM160,51.31,188.69,80H160ZM200,216H56V40h88V88a8,8,0,0,0,8,8h48V216Zm-32-80a8,8,0,0,1-8,8H96a8,8,0,0,1,0-16h64A8,8,0,0,1,168,136Zm0,32a8,8,0,0,1-8,8H96a8,8,0,0,1,0-16h64A8,8,0,0,1,168,168Z"/></symbol><symbol id="icon-menu" viewBox="0 0 256 256"><path d="M224,128a8,8,0,0,1-8,8H40a8,8,0,0,1,0-16H216A8,8,0,0,1,224,128ZM40,72H216a8,8,0,0,0,0-16H40a8,8,0,0,0,0,16ZM216,184H40a8,8,0,0,0,0,16H216a8,8,0,0,0,0-16Z"/></symbol><symbol id="icon-close" viewBox="0 0 256 256"><path d="M205.66,194.34a8,8,0,0,1-11.32,11.32L128,139.31,61.66,205.66a8,8,0,0,1-11.32-11.32L116.69,128,50.34,61.66A8,8,0,0,1,61.66,50.34L128,116.69l66.34-66.35a8,8,0,0,1,11.32,11.32L139.31,128Z"/></symbol><symbol id="icon-search" viewBox="0 0 256 256"><path d="M229.66,218.34l-50.07-50.06a88.11,88.11,0,1,0-11.31,11.31l50.06,50.07a8,8,0,0,0,11.32-11.32ZM40,112a72,72,0,1,1,72,72A72.08,72.08,0,0,1,40,112Z"/></symbol><symbol id="icon-caret-down" viewBox="0 0 256 256"><path d="M213.66,101.66l-80,80a8,8,0,0,1-11.32,0l-80-80A8,8,0,0,1,53.66,90.34L128,164.69l74.34-74.35a8,8,0,0,1,11.32,11.32Z"/></symbol><symbol id="icon-home" viewBox="0 0 256 256"><path d="M219.31,108.68l-80-80a16,16,0,0,0-22.62,0l-80,80A15.87,15.87,0,0,0,32,120v96a8,8,0,0,0,8,8h64a8,8,0,0,0,8-8V160h32v56a8,8,0,0,0,8,8h64a8,8,0,0,0,8-8V120A15.87,15.87,0,0,0,219.31,108.68ZM208,208H160V152a8,8,0,0,0-8-8H104a8,8,0,0,0-8,8v56H48V120l80-80,80,80Z"/></symbol><symbol id="icon-home-active" viewBox="0 0 256 256"><path d="M224,120v96a8,8,0,0,1-8,8H160a8,8,0,0,1-8-8V164a4,4,0,0,0-4-4H108a4,4,0,0,0-4,4v52a8,8,0,0,1-8,8H40a8,8,0,0,1-8-8V120a16,16,0,0,1,4.69-11.31l80-80a16,16,0,0,1,22.62,0l80,80A16,16,0,0,1,224,120Z"/></symbol><symbol id="icon-structures" viewBox="0 0 256 256"><path d="M104,40H56A16,16,0,0,0,40,56v48a16,16,0,0,0,16,16h48a16,16,0,0,0,16-16V56A16,16,0,0,0,104,40Zm0,64H56V56h48v48Zm96-64H152a16,16,0,0,0-16,16v48a16,16,0,0,0,16,16h48a16,16,0,0,0,16-16V56A16,16,0,0,0,200,40Zm0,64H152V56h48v48Zm-96,32H56a16,16,0,0,0-16,16v48a16,16,0,0,0,16,16h48a16,16,0,0,0,16-16V152A16,16,0,0,0,104,136Zm0,64H56V152h48v48Zm96-64H152a16,16,0,0,0-16,16v48a16,16,0,0,0,16,16h48a16,16,0,0,0,16-16V152A16,16,0,0,0,200,136Zm0,64H152V152h48v48Z"/></symbol><symbol id="icon-structures-active" viewBox="0 0 256 256"><path d="M120,56v48a16,16,0,0,1-16,16H56a16,16,0,0,1-16-16V56A16,16,0,0,1,56,40h48A16,16,0,0,1,120,56Zm80-16H152a16,16,0,0,0-16,16v48a16,16,0,0,0,16,16h48a16,16,0,0,0,16-16V56A16,16,0,0,0,200,40Zm-96,96H56a16,16,0,0,0-16,16v48a16,16,0,0,0,16,16h48a16,16,0,0,0,16-16V152A16,16,0,0,0,104,136Zm96,0H152a16,16,0,0,0-16,16v48a16,16,0,0,0,16,16h48a16,16,0,0,0,16-16V152A16,16,0,0,0,200,136Z"/></symbol><symbol id="icon-investment" viewBox="0 0 256 256"><path d="M232,208a8,8,0,0,1-8,8H32a8,8,0,0,1-8-8V48a8,8,0,0,1,16,0V156.69l50.34-50.35a8,8,0,0,1,11.32,0L128,132.69,180.69,80H160a8,8,0,0,1,0-16h40a8,8,0,0,1,8,8v40a8,8,0,0,1-16,0V91.31l-58.34,58.35a8,8,0,0,1-11.32,0L96,123.31l-56,56V200H224A8,8,0,0,1,232,208Z"/></symbol><symbol id="icon-investment-active" viewBox="0 0 256 256"><path d="M216,40H40A16,16,0,0,0,24,56V200a16,16,0,0,0,16,16H216a16,16,0,0,0,16-16V56A16,16,0,0,0,216,40ZM200,192H56a8,8,0,0,1-8-8V72a8,8,0,0,1,16,0v76.69l34.34-34.35a8,8,0,0,1,11.32,0L128,132.69,172.69,88H144a8,8,0,0,1,0-16h48a8,8,0,0,1,8,8v48a8,8,0,0,1-16,0V99.31l-50.34,50.35a8,8,0,0,1-11.32,0L104,131.31l-40,40V176H200a8,8,0,0,1,0,16Z"/></symbol><symbol id="icon-services-nav" viewBox="0 0 256 256"><path d="M226.76,69a8,8,0,0,0-12.84-2.88l-40.3,37.19-17.23-3.7-3.7-17.23,37.19-40.3A8,8,0,0,0,187,29.24,72,72,0,0,0,88,96,72.34,72.34,0,0,0,94,124.94L33.79,177c-.15.12-.29.26-.43.39a32,32,0,0,0,45.26,45.26c.13-.13.27-.28.39-.42L131.06,162A72,72,0,0,0,232,96,71.56,71.56,0,0,0,226.76,69ZM160,152a56.14,56.14,0,0,1-27.07-7,8,8,0,0,0-9.92,1.77L67.11,211.51a16,16,0,0,1-22.62-22.62L109.18,133a8,8,0,0,0,1.77-9.93,56,56,0,0,1,58.36-82.31l-31.2,33.81a8,8,0,0,0-1.94,7.1L141.83,108a8,8,0,0,0,6.14,6.14l26.35,5.66a8,8,0,0,0,7.1-1.94l33.81-31.2A56.06,56.06,0,0,1,160,152Z"/></symbol><symbol id="icon-services-nav-active" viewBox="0 0 256 256"><path d="M232,96a72,72,0,0,1-100.94,66L79,222.22c-.12.14-.26.29-.39.42a32,32,0,0,1-45.26-45.26c.14-.13.28-.27.43-.39L94,124.94a72.07,72.07,0,0,1,83.54-98.78,8,8,0,0,1,3.93,13.19L144,80l5.66,26.35L176,112l40.65-37.52a8,8,0,0,1,13.19,3.93A72.6,72.6,0,0,1,232,96Z"/></symbol><symbol id="icon-rfq" viewBox="0 0 256 256"><path d="M229.66,58.34l-32-32a8,8,0,0,0-11.32,0l-96,96A8,8,0,0,0,88,128v32a8,8,0,0,0,8,8h32a8,8,0,0,0,5.66-2.34l96-96A8,8,0,0,0,229.66,58.34ZM124.69,152H104V131.31l64-64L188.69,88ZM200,76.69,179.31,56,192,43.31,212.69,64ZM224,128v80a16,16,0,0,1-16,16H48a16,16,0,0,1-16-16V48A16,16,0,0,1,48,32h80a8,8,0,0,1,0,16H48V208H208V128a8,8,0,0,1,16,0Z"/></symbol><symbol id="icon-rfq-active" viewBox="0 0 256 256"><path d="M224,128v80a16,16,0,0,1-16,16H48a16,16,0,0,1-16-16V48A16,16,0,0,1,48,32h80a8,8,0,0,1,0,16H48V208H208V128a8,8,0,0,1,16,0Zm5.66-58.34-96,96A8,8,0,0,1,128,168H96a8,8,0,0,1-8-8V128a8,8,0,0,1,2.34-5.66l96-96a8,8,0,0,1,11.32,0l32,32A8,8,0,0,1,229.66,69.66Zm-17-5.66L192,43.31,179.31,56,200,76.69Z"/></symbol><symbol id="icon-contact" viewBox="0 0 256 256"><path d="M222.37,158.46l-47.11-21.11-.13-.06a16,16,0,0,0-15.17,1.4,8.12,8.12,0,0,0-.75.56L134.87,160c-15.42-7.49-31.34-23.29-38.83-38.51l20.78-24.71c.2-.25.39-.5.57-.77a16,16,0,0,0,1.32-15.06l0-.12L97.54,33.64a16,16,0,0,0-16.62-9.52A56.26,56.26,0,0,0,32,80c0,79.4,64.6,144,144,144a56.26,56.26,0,0,0,55.88-48.92A16,16,0,0,0,222.37,158.46ZM176,208A128.14,128.14,0,0,1,48,80,40.2,40.2,0,0,1,82.87,40a.61.61,0,0,0,0,.12l21,47L83.2,111.86a6.13,6.13,0,0,0-.57.77,16,16,0,0,0-1,15.7c9.06,18.53,27.73,37.06,46.46,46.11a16,16,0,0,0,15.75-1.14,8.44,8.44,0,0,0,.74-.56L168.89,152l47,21.05h0s.08,0,.11,0A40.21,40.21,0,0,1,176,208Z"/></symbol><symbol id="icon-contact-active" viewBox="0 0 256 256"><path d="M231.88,175.08A56.26,56.26,0,0,1,176,224C96.6,224,32,159.4,32,80A56.26,56.26,0,0,1,80.92,24.12a16,16,0,0,1,16.62,9.52l21.12,47.15,0,.12A16,16,0,0,1,117.39,96c-.18.27-.37.52-.57.77L96,121.45c7.49,15.22,23.41,31,38.83,38.51l24.34-20.71a8.12,8.12,0,0,1,.75-.56,16,16,0,0,1,15.17-1.4l.13.06,47.11,21.11A16,16,0,0,1,231.88,175.08Z"/></symbol><symbol id="icon-fam-billboard" viewBox="0 0 256 256"><path d="M232,64V48a16,16,0,0,0-16-16H40A16,16,0,0,0,24,48V64A16,16,0,0,0,40,80v96H32a8,8,0,0,0,0,16h88v17.38a24,24,0,1,0,16,0V192h88a8,8,0,0,0,0-16h-8V80A16,16,0,0,0,232,64ZM128,240a8,8,0,1,1,8-8A8,8,0,0,1,128,240ZM40,48H216V64H40ZM200,176H56V80H200Z"/></symbol><symbol id="icon-fam-straboard" viewBox="0 0 256 256"><path d="M200,80v32a8,8,0,0,1-16,0V88H160a8,8,0,0,1,0-16h32A8,8,0,0,1,200,80ZM96,168H72V144a8,8,0,0,0-16,0v32a8,8,0,0,0,8,8H96a8,8,0,0,0,0-16ZM232,56V200a16,16,0,0,1-16,16H40a16,16,0,0,1-16-16V56A16,16,0,0,1,40,40H216A16,16,0,0,1,232,56ZM216,200V56H40V200H216Z"/></symbol><symbol id="icon-fam-lightbox" viewBox="0 0 256 256"><path d="M176,232a8,8,0,0,1-8,8H88a8,8,0,0,1,0-16h80A8,8,0,0,1,176,232Zm40-128a87.55,87.55,0,0,1-33.64,69.21A16.24,16.24,0,0,0,176,186v6a16,16,0,0,1-16,16H96a16,16,0,0,1-16-16v-6a16,16,0,0,0-6.23-12.66A87.59,87.59,0,0,1,40,104.49C39.74,56.83,78.26,17.14,125.88,16A88,88,0,0,1,216,104Zm-16,0a72,72,0,0,0-73.74-72c-39,.92-70.47,33.39-70.26,72.39a71.65,71.65,0,0,0,27.64,56.3A32,32,0,0,1,96,186v6h64v-6a32.15,32.15,0,0,1,12.47-25.35A71.65,71.65,0,0,0,200,104Zm-16.11-9.34a57.6,57.6,0,0,0-46.56-46.55,8,8,0,0,0-2.66,15.78c16.57,2.79,30.63,16.85,33.44,33.45A8,8,0,0,0,176,104a9,9,0,0,0,1.35-.11A8,8,0,0,0,183.89,94.66Z"/></symbol><symbol id="icon-fam-lightboard" viewBox="0 0 256 256"><path d="M247.35,148.85l-48-112A8,8,0,0,0,192,32H64a8,8,0,0,0-7.35,4.85l-48,112A8,8,0,0,0,16,160H120v48H96a8,8,0,0,0,0,16h64a8,8,0,0,0,0-16H136V160h56v32a8,8,0,0,0,16,0V160h32a8,8,0,0,0,7.35-11.15ZM28.13,144,69.28,48H186.72l41.15,96Z"/></symbol><symbol id="icon-fam-brightboard" viewBox="0 0 256 256"><path d="M120,40V16a8,8,0,0,1,16,0V40a8,8,0,0,1-16,0Zm72,88a64,64,0,1,1-64-64A64.07,64.07,0,0,1,192,128Zm-16,0a48,48,0,1,0-48,48A48.05,48.05,0,0,0,176,128ZM58.34,69.66A8,8,0,0,0,69.66,58.34l-16-16A8,8,0,0,0,42.34,53.66Zm0,116.68-16,16a8,8,0,0,0,11.32,11.32l16-16a8,8,0,0,0-11.32-11.32ZM192,72a8,8,0,0,0,5.66-2.34l16-16a8,8,0,0,0-11.32-11.32l-16,16A8,8,0,0,0,192,72Zm5.66,114.34a8,8,0,0,0-11.32,11.32l16,16a8,8,0,0,0,11.32-11.32ZM48,128a8,8,0,0,0-8-8H16a8,8,0,0,0,0,16H40A8,8,0,0,0,48,128Zm80,80a8,8,0,0,0-8,8v24a8,8,0,0,0,16,0V216A8,8,0,0,0,128,208Zm112-88H216a8,8,0,0,0,0,16h24a8,8,0,0,0,0-16Z"/></symbol><symbol id="icon-fam-org" viewBox="0 0 256 256"><path d="M240,208H224V96a16,16,0,0,0-16-16H144V32a16,16,0,0,0-24.88-13.32L39.12,72A16,16,0,0,0,32,85.34V208H16a8,8,0,0,0,0,16H240a8,8,0,0,0,0-16ZM208,96V208H144V96ZM48,85.34,128,32V208H48ZM112,112v16a8,8,0,0,1-16,0V112a8,8,0,1,1,16,0Zm-32,0v16a8,8,0,0,1-16,0V112a8,8,0,1,1,16,0Zm0,56v16a8,8,0,0,1-16,0V168a8,8,0,0,1,16,0Zm32,0v16a8,8,0,0,1-16,0V168a8,8,0,0,1,16,0Z"/></symbol><symbol id="icon-fam-indoor" viewBox="0 0 256 256"><path d="M232,96a7.89,7.89,0,0,0-.3-2.2L217.35,43.6A16.07,16.07,0,0,0,202,32H54A16.07,16.07,0,0,0,38.65,43.6L24.31,93.8A7.89,7.89,0,0,0,24,96h0v16a40,40,0,0,0,16,32v72a8,8,0,0,0,8,8H208a8,8,0,0,0,8-8V144a40,40,0,0,0,16-32V96ZM54,48H202l11.42,40H42.61Zm50,56h48v8a24,24,0,0,1-48,0Zm-16,0v8a24,24,0,0,1-35.12,21.26,7.88,7.88,0,0,0-1.82-1.06A24,24,0,0,1,40,112v-8ZM200,208H56V151.2a40.57,40.57,0,0,0,8,.8,40,40,0,0,0,32-16,40,40,0,0,0,64,0,40,40,0,0,0,32,16,40.57,40.57,0,0,0,8-.8Zm4.93-75.8a8.08,8.08,0,0,0-1.8,1.05A24,24,0,0,1,168,112v-8h48v8A24,24,0,0,1,204.93,132.2Z"/></symbol><symbol id="icon-fam-bridge" viewBox="0 0 256 256"><path d="M232,160H200V101.34a71.89,71.89,0,0,0,29,21.42,8,8,0,0,0,6-14.83A55.78,55.78,0,0,1,200,56a8,8,0,0,0-16,0A56,56,0,0,1,72,56a8,8,0,0,0-16,0,55.78,55.78,0,0,1-35,51.93,8,8,0,0,0,6,14.83,71.89,71.89,0,0,0,29-21.42V160H24a8,8,0,0,0,0,16H56v24a8,8,0,0,0,16,0V176H184v24a8,8,0,0,0,16,0V176h32a8,8,0,0,0,0-16Zm-88-33.8V160H112V126.2a72,72,0,0,0,32,0Zm-72-25a72.47,72.47,0,0,0,24,19.27V160H72ZM160,160V120.48a72.47,72.47,0,0,0,24-19.27V160Z"/></symbol></svg>